<svg width="80" height="80" viewBox="0 0 80 80" fill="none" xmlns="http://www.w3.org/2000/svg">
<path d="M40 80C62.0914 80 80 62.0914 80 40C80 17.9086 62.0914 0 40 0C17.9086 0 0 17.9086 0 40C0 62.0914 17.9086 80 40 80Z" fill="#D2F9FF"/>
<path d="M61.6479 29.9088C60.3874 31.1693 59.127 32.4297 57.8665 33.6902C58.3637 33.6902 58.861 33.6902 59.3581 33.6902C58.0525 32.3847 56.7461 31.0799 55.4412 29.7737C55.4412 30.2709 55.4412 30.7681 55.4412 31.2653C56.14 30.5657 56.8395 29.867 57.5386 29.1679C57.9758 28.7307 58.413 28.2934 58.8502 27.8563C58.9629 27.7436 59.0756 27.6309 59.1883 27.5182C59.3032 27.4033 58.9938 27.6319 59.1839 27.5198C59.0519 27.5703 59.0195 27.5859 59.0866 27.5669C59.1033 27.5631 59.12 27.5595 59.1368 27.5558C59.0451 27.5889 58.9533 27.5906 58.8614 27.5608C59.1097 27.601 58.6904 27.4615 58.8344 27.5459C58.9964 27.6409 59.1794 27.6899 59.3672 27.6899C59.1897 27.6419 59.0123 27.5939 58.8348 27.5459C58.9149 27.5993 59.0021 27.7107 58.7509 27.4834C58.648 27.2348 58.545 26.9863 58.442 26.7377C58.442 27.2645 58.8484 27.5813 59.1839 27.9169C59.5636 28.2966 59.9433 28.6763 60.323 29.0559C60.6687 29.4016 61.0144 29.7473 61.3601 30.093C61.447 30.1799 61.5339 30.2669 61.6208 30.3538C61.723 30.4561 61.4917 30.1442 61.6056 30.331C61.5488 30.1785 61.5368 30.1561 61.5693 30.2637C61.553 30.0906 61.5463 30.0618 61.5492 30.1776C61.5791 30.0061 61.58 29.9767 61.5518 30.0895C61.5697 30.046 61.5877 30.0025 61.6056 29.9589C61.5462 30.053 61.5603 30.0363 61.6479 29.9088C61.2615 30.3338 61.2271 30.9796 61.6479 31.4004C62.0398 31.7923 62.7526 31.8259 63.1395 31.4004C63.8539 30.6147 63.7877 29.5375 63.0493 28.799C62.7303 28.4801 62.4115 28.1612 62.0925 27.8423C61.4759 27.2257 60.8592 26.609 60.2426 25.9923C60.3455 26.2409 60.4486 26.4895 60.5515 26.7381C60.5515 26.137 59.9665 25.5804 59.3667 25.5804C59.5441 25.6285 59.7216 25.6765 59.899 25.7244C59.2053 25.3175 58.3003 25.4229 57.7297 25.9936C57.6471 26.0761 57.5645 26.1588 57.4819 26.2413C57.0504 26.6728 56.619 27.1043 56.1875 27.5357C55.4415 28.2817 54.6952 29.0273 53.9495 29.7737C53.5433 30.1804 53.5433 30.8586 53.9495 31.2653C55.2544 32.5715 56.5608 33.8763 57.8665 35.1818C58.2729 35.5881 58.9517 35.5881 59.3581 35.1818C60.6186 33.9213 61.879 32.6608 63.1395 31.4004C63.5458 30.9941 63.5458 30.3151 63.1395 29.9088C62.7332 29.5024 62.0543 29.5024 61.6479 29.9088Z" fill="black"/>
<path d="M35.4088 48.5358C35.4023 48.5522 35.3965 48.5687 35.3912 48.5855C35.3786 48.6789 35.3661 48.7724 35.3535 48.8659C35.3541 49.0563 35.4021 49.2336 35.4975 49.3982C35.6356 49.634 35.8642 49.8104 36.1278 49.8829C36.4 49.9578 36.697 49.9193 36.9406 49.7766C37.0117 49.7216 37.0828 49.6666 37.154 49.6117C37.2847 49.4801 37.3751 49.3249 37.4253 49.1463C37.4305 49.1294 37.4364 49.1129 37.4428 49.0966C37.4554 49.0031 37.468 48.9097 37.4805 48.8162C37.4799 48.6258 37.4319 48.4483 37.3365 48.2838C37.1984 48.0481 36.9698 47.8717 36.7062 47.7991C36.434 47.7243 36.1371 47.7628 35.8935 47.9055C35.8223 47.9605 35.7512 48.0154 35.68 48.0704C35.5493 48.202 35.4589 48.3571 35.4088 48.5358Z" fill="black"/>
<path d="M37.3365 49.3481C37.3449 49.3284 37.3543 49.3096 37.3671 49.2923C37.3121 49.3634 37.2572 49.4346 37.2022 49.5057C37.2047 49.5025 37.2074 49.4994 37.2102 49.4963C36.7131 49.4963 36.2159 49.4963 35.7187 49.4963C35.7188 49.4965 35.719 49.4966 35.7192 49.4968C35.9161 49.6937 36.1864 49.8057 36.465 49.8057C36.7436 49.8057 37.0139 49.6937 37.2107 49.4968C37.4076 49.2999 37.5197 49.0296 37.5197 48.751C37.5197 48.4724 37.4077 48.2021 37.2107 48.0052C37.2106 48.005 37.2104 48.0049 37.2102 48.0047C37.0134 47.8078 36.7431 47.6958 36.4645 47.6958C36.371 47.7084 36.2775 47.7209 36.1841 47.7335C36.0054 47.7836 35.8503 47.874 35.7186 48.0047C35.6462 48.0844 35.5599 48.1785 35.515 48.2835C35.4796 48.3674 35.4441 48.4514 35.4087 48.5354C35.3585 48.7223 35.3585 48.9093 35.4087 49.0962C35.4812 49.3598 35.6577 49.5884 35.8934 49.7265C36.137 49.8692 36.4339 49.9077 36.7061 49.8328C36.7901 49.7974 36.8741 49.762 36.9581 49.7265C37.1166 49.6327 37.2427 49.5066 37.3365 49.3481Z" fill="black"/>
<path d="M53.6642 22.3194C53.6642 24.809 53.6642 27.2985 53.6642 29.7881C53.6642 30.0398 53.6642 30.2915 53.6642 30.5432C54.2644 30.2946 54.8645 30.046 55.4648 29.7974C55.4569 29.7895 55.4491 29.7817 55.4412 29.7738C55.035 29.3673 54.3558 29.3677 53.9496 29.7738C52.2595 31.464 50.5693 33.1541 48.8792 34.8442C47.2395 36.4839 45.6 38.1237 43.9604 39.7634C42.635 41.0889 41.3096 42.4144 39.9842 43.7399C38.8936 44.8305 37.803 45.9212 36.7124 47.0118C36.4141 47.3102 36.1157 47.6086 35.8173 47.907C35.5705 48.1538 35.3711 48.4455 35.3711 48.8157C35.3711 48.4385 35.3907 48.5746 35.3602 48.7107C35.3486 48.7626 35.3411 48.8154 35.3329 48.8678C35.3048 49.0484 35.283 49.2302 35.2631 49.4119C35.2262 49.7491 35.2137 50.0893 35.1994 50.428C35.164 51.262 35.159 52.0983 35.1657 52.9331C35.1703 53.5096 35.642 53.9856 36.2204 53.9878C37.5757 53.993 38.9618 54.0069 40.3032 53.7943C40.9685 53.6889 41.3629 53.1771 41.8104 52.7296C43.7006 50.8393 45.5908 48.9491 47.481 47.0589C49.6083 44.9316 51.7357 42.8043 53.863 40.677C54.3969 40.1431 54.9308 39.6091 55.4648 39.0752C54.8646 38.8266 54.2645 38.578 53.6642 38.3294C53.6642 40.0797 53.6642 41.8299 53.6642 43.5802C53.6642 46.8002 53.6642 50.0202 53.6642 53.2402C53.6642 54.4495 53.6642 55.6587 53.6642 56.868C53.6642 57.2058 53.6642 57.5437 53.6642 57.8816C53.6642 57.9629 53.6642 58.0443 53.6642 58.1258C53.6642 58.1416 53.6642 58.1575 53.6642 58.1735C53.6642 58.1755 53.6642 58.1775 53.6642 58.1795C53.6642 58.2494 53.6613 58.3189 53.6577 58.3886C53.6547 58.4345 53.6509 58.4803 53.6461 58.5261C53.6705 58.3592 53.6738 58.3334 53.6558 58.4488C53.6347 58.5818 53.6012 58.7127 53.5636 58.842C53.5451 58.9059 53.5227 58.9687 53.5002 59.0313C53.4202 59.2545 53.6023 58.8083 53.5047 59.0235C53.4505 59.1431 53.3855 59.2576 53.3173 59.3697C53.2833 59.4255 53.246 59.4792 53.2088 59.5329C53.1427 59.623 53.1584 59.6039 53.2559 59.4756C53.2287 59.5095 53.2008 59.5428 53.1723 59.5755C53.0878 59.6747 52.9946 59.766 52.899 59.8544C52.8511 59.8986 52.8007 59.9399 52.7503 59.9811C52.9832 59.7904 52.8076 59.934 52.7539 59.9713C52.6462 60.046 52.5321 60.1108 52.4163 60.172C52.3581 60.2028 52.298 60.23 52.2381 60.2572C52.5317 60.1241 52.2474 60.2465 52.1804 60.2689C52.053 60.3116 51.922 60.3423 51.7903 60.3689C51.7241 60.3823 51.4867 60.4076 51.8009 60.3711C51.7323 60.3791 51.6632 60.3827 51.5942 60.3864C51.5432 60.3891 51.4921 60.3894 51.4411 60.3894C51.3987 60.3894 51.3563 60.3894 51.3139 60.3894C50.7432 60.3894 50.1726 60.3894 49.6019 60.3894C47.0705 60.3894 44.539 60.3894 42.0076 60.3894C38.7214 60.3894 35.4352 60.3894 32.1489 60.3894C29.4263 60.3894 26.7037 60.3894 23.9811 60.3894C23.2432 60.3894 22.5052 60.3894 21.7672 60.3894C21.6262 60.3894 21.4852 60.3894 21.3441 60.3894C21.3362 60.3894 21.3283 60.3894 21.3204 60.3894C21.2502 60.3894 21.1804 60.3864 21.1103 60.3828C21.0442 60.3793 20.8012 60.3482 21.1174 60.3916C21.0279 60.3794 20.9395 60.3605 20.8513 60.3408C20.7209 60.3116 20.5934 60.2704 20.4677 60.2253C20.2445 60.1454 20.6908 60.3274 20.4756 60.2299C20.4157 60.2028 20.3575 60.172 20.2994 60.1413C20.1836 60.0801 20.0737 60.0086 19.9662 59.934C19.7743 59.8009 20.1536 60.0877 19.9731 59.9398C19.9059 59.8848 19.8426 59.8251 19.78 59.765C19.686 59.6747 19.6004 59.5762 19.5179 59.4755C19.7253 59.7288 19.4666 59.3864 19.4224 59.3137C19.354 59.2013 19.296 59.083 19.2418 58.9633C19.3679 59.2415 19.2734 59.0309 19.2512 58.9687C19.2211 58.8848 19.1972 58.7989 19.1741 58.7129C19.1513 58.6276 19.088 58.1846 19.1277 58.526C19.1143 58.4112 19.1095 58.2948 19.1095 58.1793C19.1095 58.1733 19.1095 58.1672 19.1095 58.1612C19.1095 58.0443 19.1095 57.9274 19.1095 57.8106C19.1095 57.1785 19.1095 56.5465 19.1095 55.9144C19.1095 53.4657 19.1095 51.017 19.1095 48.5683C19.1095 45.3187 19.1095 42.069 19.1095 38.8193C19.1095 35.7027 19.1095 32.5862 19.1095 29.4696C19.1095 27.4203 19.1095 25.3709 19.1095 23.3216C19.1095 22.989 19.1095 22.6564 19.1095 22.3239C19.1095 22.2063 19.1166 22.0896 19.1277 21.9726C19.0955 22.312 19.1525 21.8738 19.1741 21.7858C19.19 21.7208 19.21 21.6569 19.23 21.5931C19.2505 21.5274 19.3697 21.237 19.2417 21.5353C19.2936 21.4145 19.3563 21.2986 19.4224 21.185C19.4642 21.1132 19.7217 20.764 19.5178 21.0232C19.5984 20.9207 19.6879 20.8257 19.78 20.7337C19.826 20.6876 19.8748 20.6444 19.9235 20.6011C19.9562 20.5726 19.9895 20.5448 20.0234 20.5175C19.8952 20.615 19.8761 20.6307 19.9661 20.5647C20.0722 20.4879 20.1849 20.4208 20.2993 20.3574C20.3569 20.3255 20.4163 20.2971 20.4756 20.2687C20.6888 20.1668 20.2462 20.3578 20.4677 20.2733C20.5926 20.2256 20.7216 20.1897 20.8513 20.1578C20.917 20.1417 20.9836 20.1297 21.0501 20.1177C21.1655 20.0998 21.1397 20.103 20.9728 20.1275C21.0185 20.1227 21.0643 20.1188 21.1103 20.116C21.1974 20.1095 21.2849 20.1094 21.3723 20.1094C22.8836 20.1094 24.3949 20.1094 25.9062 20.1094C28.9238 20.1094 31.9414 20.1094 34.9589 20.1094C38.1644 20.1094 41.3698 20.1094 44.5752 20.1094C46.6501 20.1094 48.725 20.1094 50.8 20.1094C51.0175 20.1094 51.235 20.1094 51.4526 20.1094C51.5691 20.1094 51.6849 20.1166 51.8009 20.1276C51.4714 20.0963 51.7836 20.1285 51.8566 20.1432C51.9662 20.1654 52.0737 20.1965 52.1803 20.2299C52.2461 20.2504 52.5364 20.3696 52.238 20.2416C52.3387 20.2849 52.4358 20.3361 52.5316 20.3893C52.627 20.4422 52.7179 20.5026 52.8075 20.5648C52.8975 20.6308 52.8784 20.6151 52.7501 20.5176C52.8014 20.5579 52.8501 20.6012 52.8988 20.6444C52.9638 20.7021 53.0246 20.7641 53.0848 20.8267C53.1365 20.8805 53.3677 21.1744 53.1704 20.913C53.3021 21.0875 53.4105 21.2784 53.5046 21.4753C53.5509 21.5784 53.5414 21.5551 53.4764 21.4054C53.4926 21.4466 53.5079 21.4881 53.5225 21.5299C53.5601 21.6349 53.589 21.7428 53.6156 21.8511C53.6345 21.9279 53.6854 22.3122 53.6459 21.9726C53.6595 22.0879 53.663 22.2038 53.6642 22.3194C53.6703 22.8943 54.1394 23.3742 54.719 23.3742C55.2893 23.3742 55.7797 22.8944 55.7737 22.3194C55.7487 19.9451 53.803 18.0002 51.4226 18.0002C50.969 18.0002 50.5154 18.0002 50.0619 18.0002C47.6707 18.0002 45.2795 18.0002 42.8884 18.0002C39.6172 18.0002 36.346 18.0002 33.0748 18.0002C30.242 18.0002 27.4091 18.0002 24.5763 18.0002C23.7363 18.0002 22.8963 18.0002 22.0562 18.0002C21.3709 18.0002 20.7007 17.9872 20.0325 18.1959C18.1878 18.7724 17 20.5121 17 22.4194C17 22.8934 17 23.3672 17 23.8411C17 26.082 17 28.3229 17 30.5638C17 33.7505 17 36.9372 17 40.1239C17 43.3223 17 46.5206 17 49.719C17 51.9949 17 54.2708 17 56.5468C17 57.0469 17 57.5471 17 58.0473C17 59.7537 17.9241 61.415 19.5317 62.1046C20.1355 62.3637 20.7513 62.4988 21.4109 62.4988C21.5985 62.4988 21.7861 62.4988 21.9737 62.4988C22.7874 62.4988 23.6011 62.4988 24.4149 62.4988C27.2198 62.4988 30.0248 62.4988 32.8298 62.4988C36.1061 62.4988 39.3824 62.4988 42.6587 62.4988C45.0879 62.4988 47.5171 62.4988 49.9464 62.4988C50.4314 62.4988 50.9163 62.4988 51.4013 62.4988C52.1938 62.4988 52.9671 62.2967 53.6529 61.898C54.8853 61.1816 55.5942 59.9136 55.7554 58.5261C55.8205 57.9657 55.7736 57.3763 55.7736 56.8144C55.7736 55.5935 55.7736 54.3726 55.7736 53.1517C55.7736 49.9314 55.7736 46.711 55.7736 43.4906C55.7736 41.7702 55.7736 40.0498 55.7736 38.3294C55.7736 37.4094 54.6239 36.9327 53.973 37.5836C52.7549 38.8017 51.5368 40.0198 50.3187 41.2379C48.0388 43.5178 45.7589 45.7977 43.4791 48.0775C42.1991 49.3575 40.9191 50.6375 39.6392 51.9174C39.5784 51.9783 39.5604 51.9697 39.8309 51.7709C39.7156 51.8556 40.1339 51.6519 40.0128 51.6978C39.9865 51.7077 39.9591 51.7149 39.9318 51.7221C39.8696 51.7386 39.8058 51.7496 39.7423 51.7602C39.6512 51.7755 39.4488 51.7988 39.8545 51.7465C39.8041 51.7531 39.7536 51.7584 39.7031 51.7639C39.2282 51.8145 38.7494 51.8326 38.2723 51.8486C37.5887 51.8715 36.9042 51.881 36.2202 51.8785C36.5717 52.23 36.9233 52.5816 37.2749 52.9332C37.2702 52.3499 37.2742 51.7665 37.2861 51.1833C37.2955 50.723 37.3117 50.2628 37.3405 49.8033C37.3519 49.6208 37.3695 49.439 37.3899 49.2573C37.3491 49.6207 37.3788 49.3518 37.394 49.2715C37.4249 49.1087 37.4803 48.999 37.4803 48.8157C37.4323 48.9932 37.3843 49.1706 37.3363 49.3481C37.2243 49.5333 37.1701 49.5372 37.2433 49.464C37.2783 49.429 37.3134 49.3939 37.3484 49.3589C37.4756 49.2317 37.6028 49.1045 37.73 48.9773C38.1642 48.543 38.5983 48.1089 39.0325 47.6746C40.172 46.5351 41.3116 45.3954 42.4511 44.2558C43.7522 42.9546 45.0532 41.6535 46.3543 40.3523C47.8688 38.8377 49.3833 37.323 50.8978 35.8085C52.4122 34.2941 53.9266 32.7797 55.441 31.2653C54.9438 31.2653 54.4465 31.2653 53.9494 31.2653C53.9573 31.2732 53.9651 31.2811 53.973 31.2889C54.6236 31.9402 55.7735 31.4628 55.7735 30.5432C55.7735 28.0536 55.7735 25.5641 55.7735 23.0745C55.7735 22.8228 55.7735 22.5711 55.7735 22.3194C55.7735 21.7445 55.2937 21.2647 54.7188 21.2647C54.1439 21.2647 53.6642 21.7445 53.6642 22.3194Z" fill="#28728A"/>
<path d="M25.0912 28.5972C26.6845 28.5972 28.2778 28.5972 29.8711 28.5972C33.0794 28.5972 36.2877 28.5972 39.496 28.5972C41.9616 28.5972 44.4272 28.5972 46.8928 28.5972C47.1449 28.5972 47.3969 28.5972 47.6489 28.5972C48.2238 28.5972 48.7036 28.1174 48.7036 27.5425C48.7036 26.9676 48.2238 26.4878 47.6489 26.4878C46.0556 26.4878 44.4623 26.4878 42.8689 26.4878C39.6607 26.4878 36.4524 26.4878 33.2441 26.4878C30.7785 26.4878 28.3128 26.4878 25.8472 26.4878C25.5952 26.4878 25.3432 26.4878 25.0912 26.4878C24.5162 26.4878 24.0365 26.9676 24.0365 27.5425C24.0365 28.1174 24.5162 28.5972 25.0912 28.5972Z" fill="#28728A"/>
<path d="M41.622 34.959C39.6437 34.959 37.6655 34.959 35.6873 34.959C32.6779 34.959 29.6685 34.959 26.6591 34.959C26.1364 34.959 25.6138 34.959 25.0912 34.959C24.5163 34.959 24.0365 35.4387 24.0365 36.0137C24.0365 36.5887 24.5163 37.0684 25.0912 37.0684C27.0694 37.0684 29.0477 37.0684 31.0259 37.0684C34.0353 37.0684 37.0447 37.0684 40.0541 37.0684C40.5767 37.0684 41.0994 37.0684 41.622 37.0684C42.1969 37.0684 42.6767 36.5887 42.6767 36.0137C42.6767 35.4387 42.1969 34.959 41.622 34.959Z" fill="#28728A"/>
<path d="M33.5861 43.4307C31.084 43.4307 28.5819 43.4307 26.0798 43.4307C25.7503 43.4307 25.4207 43.4307 25.0912 43.4307C24.5163 43.4307 24.0365 43.9105 24.0365 44.4854C24.0365 45.0603 24.5163 45.5401 25.0912 45.5401C27.5933 45.5401 30.0954 45.5401 32.5975 45.5401C32.927 45.5401 33.2566 45.5401 33.5861 45.5401C34.161 45.5401 34.6408 45.0603 34.6408 44.4854C34.6408 43.9105 34.161 43.4307 33.5861 43.4307Z" fill="#28728A"/>
<path d="M31.5771 51.9014C29.4152 51.9014 27.2532 51.9014 25.0912 51.9014C24.5163 51.9014 24.0365 52.3812 24.0365 52.9561C24.0365 53.531 24.5163 54.0108 25.0912 54.0108C27.2532 54.0108 29.4151 54.0108 31.5771 54.0108C32.152 54.0108 32.6318 53.531 32.6318 52.9561C32.6318 52.3812 32.152 51.9014 31.5771 51.9014Z" fill="#28728A"/>
<path d="M57.8665 33.6905C56.5228 35.0342 55.179 36.378 53.8352 37.7218C52.2824 39.2746 50.7297 40.8274 49.177 42.3801C46.9233 44.6338 44.6695 46.8875 42.4158 49.1412C41.6704 49.8867 40.9249 50.6322 40.1795 51.3776C40.0149 51.5422 39.8502 51.7068 39.6856 51.8715C39.6719 51.8851 39.6582 51.8988 39.6446 51.9125C39.6418 51.9153 39.639 51.918 39.6362 51.9208C39.8112 51.7459 39.8077 51.7852 40.0299 51.6916C39.9398 51.7296 39.8382 51.7445 39.7425 51.7605C39.4685 51.8064 40.0194 51.7278 39.7808 51.7556C39.686 51.7667 39.5908 51.7754 39.4957 51.7835C38.4091 51.8769 37.3105 51.8828 36.2204 51.8787C36.5719 52.2303 36.9235 52.5818 37.2751 52.9334C37.2704 52.3502 37.2744 51.7667 37.2863 51.1835C37.2957 50.7232 37.312 50.263 37.3407 49.8035C37.3521 49.621 37.3697 49.4392 37.3902 49.2575C37.3493 49.621 37.379 49.3521 37.3942 49.2717C37.4251 49.1089 37.4805 48.9992 37.4805 48.816C37.4325 48.9934 37.3845 49.1709 37.3365 49.3483C37.2246 49.5335 37.1703 49.5374 37.2435 49.4643C37.2786 49.4293 37.3136 49.3942 37.3486 49.3591C37.4758 49.2319 37.603 49.1048 37.7302 48.9775C38.1644 48.5433 38.5985 48.1091 39.0327 47.6749C40.1722 46.5353 41.3118 45.3956 42.4513 44.256C43.7524 42.9549 45.0535 41.6537 46.3545 40.3525C47.869 38.8379 49.3835 37.3233 50.8981 35.8087C52.4124 34.2943 53.9268 32.78 55.4412 31.2656C54.944 31.2656 54.4468 31.2656 53.9496 31.2656C55.2545 32.5718 56.5609 33.8766 57.8665 35.1821C58.2729 35.5884 58.9517 35.5884 59.3581 35.1821C59.7644 34.7757 59.7645 34.0968 59.3581 33.6905C58.0525 32.385 56.7461 31.0802 55.4412 29.774C55.035 29.3674 54.3558 29.3678 53.9496 29.774C52.2595 31.4642 50.5693 33.1543 48.8792 34.8444C47.2395 36.4841 45.6 38.1238 43.9604 39.7636C42.635 41.0891 41.3096 42.4145 39.9842 43.7401C38.8936 44.8307 37.803 45.9214 36.7124 47.012C36.4141 47.3104 36.1157 47.6088 35.8173 47.9072C35.5705 48.154 35.3711 48.4457 35.3711 48.8159C35.3711 48.4387 35.3907 48.5747 35.3602 48.7109C35.3486 48.7627 35.3411 48.8156 35.3329 48.868C35.3048 49.0486 35.283 49.2304 35.2631 49.4121C35.2262 49.7492 35.2137 50.0895 35.1994 50.4282C35.1641 51.2622 35.159 52.0985 35.1657 52.9333C35.1703 53.5098 35.642 53.9858 36.2204 53.988C37.5757 53.9932 38.9618 54.0071 40.3033 53.7945C40.9685 53.6891 41.3629 53.1772 41.8104 52.7297C43.7006 50.8395 45.5908 48.9493 47.4811 47.0591C49.6084 44.9318 51.7357 42.8045 53.863 40.6772C54.9459 39.5943 56.0288 38.5114 57.1117 37.4285C57.8605 36.6796 58.6093 35.9308 59.3581 35.182C59.7644 34.7757 59.7644 34.0968 59.3581 33.6904C58.9518 33.2841 58.2729 33.2841 57.8665 33.6905Z" fill="#D72578"/>
<path d="M61.6479 29.9088C60.3874 31.1693 59.127 32.4297 57.8665 33.6902C58.3637 33.6902 58.861 33.6902 59.3581 33.6902C58.0525 32.3847 56.7461 31.0799 55.4412 29.7737C55.4412 30.2709 55.4412 30.7681 55.4412 31.2653C56.14 30.5657 56.8395 29.867 57.5386 29.1679C57.9758 28.7307 58.413 28.2934 58.8502 27.8563C58.9629 27.7436 59.0756 27.6309 59.1883 27.5182C59.3032 27.4033 58.9938 27.6319 59.1839 27.5198C59.0519 27.5703 59.0195 27.5859 59.0866 27.5669C59.1033 27.5631 59.12 27.5595 59.1368 27.5558C59.0451 27.5889 58.9533 27.5906 58.8614 27.5608C59.1097 27.601 58.6904 27.4615 58.8344 27.5459C58.9964 27.6409 59.1794 27.6899 59.3672 27.6899C59.1897 27.6419 59.0123 27.5939 58.8349 27.5459C59.0385 27.6818 58.6869 27.4199 58.7649 27.4979C58.7949 27.5279 58.825 27.558 58.855 27.5879C58.9734 27.7064 59.0918 27.8248 59.2102 27.9432C59.5811 28.3141 59.952 28.685 60.3229 29.0559C60.6686 29.4015 61.0143 29.7473 61.36 30.093C61.4469 30.1799 61.5338 30.2668 61.6207 30.3537C61.723 30.456 61.4916 30.1441 61.6055 30.3309C61.5487 30.1784 61.5367 30.156 61.5692 30.2637C61.5529 30.0905 61.5462 30.0618 61.5491 30.1776C61.579 30.006 61.5799 29.9767 61.5517 30.0895C61.5696 30.0459 61.5876 30.0024 61.6055 29.9589C61.5462 30.053 61.5603 30.0363 61.6479 29.9088C61.2615 30.3338 61.2271 30.9796 61.6479 31.4004C62.0398 31.7923 62.7526 31.8259 63.1395 31.4004C63.6983 30.7858 63.7885 30.0063 63.4271 29.2663C63.3338 29.0752 63.1705 28.9202 63.0208 28.7705C62.6654 28.4151 62.3101 28.0598 61.9547 27.7044C61.5371 27.2868 61.1195 26.8692 60.7019 26.4516C60.331 26.0807 59.9381 25.5804 59.3667 25.5804C59.5442 25.6285 59.7216 25.6765 59.8991 25.7244C59.2054 25.3175 58.3004 25.4229 57.7297 25.9936C57.6472 26.0761 57.5646 26.1588 57.482 26.2413C57.0505 26.6728 56.619 27.1043 56.1876 27.5357C55.4416 28.2817 54.6952 29.0273 53.9496 29.7737C53.5433 30.1804 53.5433 30.8586 53.9496 31.2653C55.2545 32.5715 56.5609 33.8763 57.8665 35.1818C58.2729 35.5881 58.9517 35.5881 59.3581 35.1818C60.6186 33.9213 61.879 32.6608 63.1395 31.4004C63.5458 30.9941 63.5458 30.3151 63.1395 29.9088C62.7332 29.5024 62.0543 29.5024 61.6479 29.9088Z" fill="#8A5228"/>
</svg>
