<svg width="80" height="80" viewBox="0 0 80 80" fill="none" xmlns="http://www.w3.org/2000/svg">
<path d="M40 80C62.0914 80 80 62.0914 80 40C80 17.9086 62.0914 0 40 0C17.9086 0 0 17.9086 0 40C0 62.0914 17.9086 80 40 80Z" fill="#D2F9FF"/>
<path d="M54.4957 16.0055C54.2727 16.0272 54.0606 16.1125 53.8847 16.2512C53.7087 16.3899 53.5763 16.5762 53.5031 16.788C53.43 16.9998 53.4192 17.2281 53.472 17.4458C53.5248 17.6636 53.639 17.8616 53.8011 18.0163L57.0732 21.2884L53.7462 24.5971L50.1816 21.0325C50.0576 20.9104 49.908 20.8175 49.7435 20.7606C49.5791 20.7037 49.404 20.6841 49.2311 20.7034C48.9603 20.7327 48.7081 20.8555 48.5182 21.0508L28.6113 41.2867C27.1393 42.7827 26.4475 44.7809 26.5456 46.7341L25.6499 47.6298C24.0893 49.1904 23.8621 51.5873 24.937 53.4063L16.3637 61.9796C16.251 62.0868 16.1608 62.2154 16.0983 62.3579C16.0359 62.5004 16.0025 62.6539 16.0001 62.8095C15.9978 62.9651 16.0264 63.1195 16.0845 63.2639C16.1425 63.4082 16.2287 63.5396 16.3381 63.6502C16.4475 63.7608 16.5779 63.8485 16.7216 63.9081C16.8653 63.9677 17.0194 63.9981 17.175 63.9974C17.3306 63.9968 17.4845 63.9651 17.6277 63.9042C17.7708 63.8434 17.9005 63.7546 18.0089 63.6431L26.5822 55.0698C28.4068 56.1539 30.8124 55.9031 32.377 54.3386L33.2544 53.4611C35.211 53.5681 37.2083 52.8831 38.7018 51.3955H38.7201L58.956 31.4703C59.066 31.3615 59.1533 31.232 59.2129 31.0892C59.2724 30.9465 59.3031 30.7933 59.3031 30.6386C59.3031 30.4839 59.2724 30.3307 59.2129 30.188C59.1533 30.0452 59.066 29.9157 58.956 29.8069L55.3914 26.2605L58.7184 22.9336L61.9905 26.2057C62.0989 26.3173 62.2285 26.406 62.3717 26.4669C62.5149 26.5277 62.6688 26.5594 62.8244 26.5601C62.98 26.5608 63.1341 26.5304 63.2778 26.4708C63.4215 26.4111 63.5519 26.3234 63.6613 26.2128C63.7707 26.1022 63.8569 25.9709 63.9149 25.8265C63.973 25.6822 64.0016 25.5277 63.9993 25.3722C63.9969 25.2166 63.9635 25.0631 63.9011 24.9206C63.8386 24.7781 63.7484 24.6494 63.6357 24.5422L55.4463 16.3528C55.3239 16.2275 55.175 16.1312 55.0105 16.0711C54.846 16.0109 54.67 15.9885 54.4957 16.0055ZM49.359 23.5186L56.4699 30.6295L54.8979 32.1833L53.1064 30.3918C52.9841 30.2665 52.8352 30.1702 52.6706 30.1101C52.5061 30.05 52.3302 30.0275 52.1559 30.0445C51.9329 30.0662 51.7208 30.1515 51.5448 30.2902C51.3689 30.4289 51.2365 30.6152 51.1633 30.827C51.0901 31.0388 51.0793 31.2671 51.1321 31.4848C51.185 31.7026 51.2992 31.9006 51.4612 32.0553L53.2161 33.8102L51.5161 35.4919L49.7064 33.6822C49.598 33.5678 49.4677 33.4764 49.3232 33.4136C49.1787 33.3508 49.023 33.3178 48.8655 33.3166C48.6317 33.3148 48.4027 33.3831 48.2081 33.5127C48.0135 33.6423 47.8621 33.8272 47.7736 34.0436C47.6851 34.26 47.6634 34.498 47.7114 34.7268C47.7594 34.9556 47.8749 35.1648 48.0429 35.3274L49.8526 37.1371L48.116 38.8554L46.3246 37.064C46.2162 36.9496 46.0859 36.8582 45.9414 36.7954C45.7969 36.7326 45.6412 36.6996 45.4837 36.6984C45.2499 36.6966 45.0209 36.7649 44.8263 36.8945C44.6317 37.0241 44.4804 37.209 44.3918 37.4254C44.3033 37.6418 44.2816 37.8797 44.3296 38.1086C44.3776 38.3374 44.4931 38.5466 44.6611 38.7092L46.4525 40.5006L44.7159 42.2189L42.9428 40.4458C42.8344 40.3314 42.7041 40.24 42.5596 40.1772C42.4151 40.1144 42.2594 40.0814 42.1019 40.0802C41.8681 40.0784 41.6391 40.1467 41.4445 40.2763C41.2499 40.4059 41.0986 40.5908 41.01 40.8072C40.9215 41.0236 40.8998 41.2615 40.9478 41.4904C40.9958 41.7192 41.1113 41.9284 41.2793 42.091L43.0525 43.8641L41.3341 45.5459L39.5427 43.8093C39.4328 43.6982 39.3018 43.6102 39.1574 43.5506C39.013 43.4909 38.8581 43.4608 38.7018 43.462C38.4672 43.4636 38.2385 43.5358 38.0455 43.6691C37.8524 43.8023 37.7038 43.9906 37.6191 44.2093C37.5343 44.4281 37.5173 44.6673 37.5702 44.8958C37.6231 45.1244 37.7435 45.3318 37.9158 45.4911L39.6707 47.1911L37.8975 48.9094L36.1792 47.1911C36.0568 47.0657 35.9079 46.9695 35.7434 46.9093C35.5789 46.8492 35.403 46.8268 35.2286 46.8438C35.0056 46.8655 34.7935 46.9508 34.6176 47.0895C34.4416 47.2282 34.3092 47.4145 34.2361 47.6263C34.1629 47.838 34.1521 48.0664 34.2049 48.2841C34.2577 48.5018 34.3719 48.6998 34.534 48.8546L36.1243 50.4632C34.2724 51.5875 31.8668 51.3423 30.2565 49.732C28.36 47.8355 28.3857 44.8518 30.2748 42.9319L49.359 23.5186ZM27.222 49.3847C27.5616 50.1131 28.0102 50.7944 28.6113 51.3955C29.2075 51.9917 29.8817 52.4629 30.6038 52.803C29.6424 53.6467 28.2337 53.6136 27.3134 52.6934C26.3878 51.7677 26.3633 50.3462 27.222 49.3847Z" fill="#28728A"/>
<line x1="25.8485" y1="54.1483" x2="16.8485" y2="63.1483" stroke="#D72578" stroke-width="2.4"/>
<line x1="25" y1="54.9969" x2="16.6971" y2="63.2998" stroke="#D72578" stroke-width="2.4" stroke-linecap="round"/>
</svg>
