<svg width="80" height="80" viewBox="0 0 80 80" fill="none" xmlns="http://www.w3.org/2000/svg">
<path d="M40 80C62.0914 80 80 62.0914 80 40C80 17.9086 62.0914 0 40 0C17.9086 0 0 17.9086 0 40C0 62.0914 17.9086 80 40 80Z" fill="#D2F9FF"/>
<path d="M60 44.0282C59.9961 47.6322 58.5641 51.0878 56.0175 53.638C53.4709 56.1882 50.0175 57.6253 46.4135 57.6343H44.6111V61.0285H49.171C49.4957 61.0285 49.8072 61.1575 50.0368 61.3871C50.2664 61.6168 50.3954 61.9282 50.3954 62.253C50.3954 62.5777 50.2664 62.8891 50.0368 63.1188C49.8072 63.3484 49.4957 63.4774 49.171 63.4774H26.0387C25.7139 63.4774 25.4025 63.3484 25.1728 63.1188C24.9432 62.8891 24.8142 62.5777 24.8142 62.253C24.8142 61.9282 24.9432 61.6168 25.1728 61.3871C25.4025 61.1575 25.7139 61.0285 26.0387 61.0285H30.6181V51.7227C30.6181 51.6737 30.6181 51.6296 30.6181 51.5856H21.3123C20.9875 51.5856 20.6761 51.4566 20.4465 51.2269C20.2168 50.9973 20.0878 50.6858 20.0878 50.3611C20.0878 50.0364 20.2168 49.7249 20.4465 49.4953C20.6761 49.2657 20.9875 49.1367 21.3123 49.1367H31.1079C31.6234 47.8383 32.5169 46.7247 33.6726 45.94C34.8284 45.1554 36.1932 44.7359 37.5901 44.7359C38.9871 44.7359 40.3518 45.1554 41.5076 45.94C42.6634 46.7247 43.5569 47.8383 44.0724 49.1367H46.4135C47.5663 49.1348 48.6842 48.7413 49.584 48.0206C50.4837 47.2999 51.1117 46.2948 51.3651 45.1702C51.6185 44.0456 51.4822 42.8683 50.9785 41.8314C50.4748 40.7945 49.6336 39.9595 48.593 39.4635C47.3263 40.3323 45.7821 40.6997 44.2598 40.4942C42.7376 40.2888 41.346 39.5252 40.3549 38.3517L38.3958 40.3108C37.7908 40.9172 36.9806 41.275 36.1249 41.314C35.2692 41.353 34.4299 41.0702 33.7723 40.5214L31.6319 42.6618C31.2418 43.0506 30.7134 43.2689 30.1626 43.2689C29.6118 43.2689 29.0834 43.0506 28.6933 42.6618L26.6362 40.6047C26.2486 40.2139 26.0311 39.6858 26.0311 39.1353C26.0311 38.5849 26.2486 38.0568 26.6362 37.666L28.7324 35.5159C28.1836 34.8582 27.9009 34.0189 27.9398 33.1632C27.9788 32.3075 28.3367 31.4974 28.9431 30.8923L42.4953 17.3597C42.609 17.2457 42.7441 17.1552 42.8929 17.0935C43.0416 17.0318 43.2011 17 43.3622 17C43.5232 17 43.6827 17.0318 43.8315 17.0935C43.9802 17.1552 44.1153 17.2457 44.2291 17.3597L51.8892 25.0444C52.0033 25.1581 52.0937 25.2932 52.1555 25.442C52.2172 25.5908 52.249 25.7502 52.249 25.9113C52.249 26.0723 52.2172 26.2318 52.1555 26.3806C52.0937 26.5293 52.0033 26.6645 51.8892 26.7782L49.0877 29.5846C49.5722 29.9939 49.9917 30.4745 50.3317 31.0099C53.1249 31.8585 55.5718 33.5814 57.3123 35.925C59.0528 38.2686 59.9949 41.109 60 44.0282ZM37.5975 47.1628C37.0004 47.1641 36.4095 47.2832 35.8585 47.5131C35.3075 47.7431 34.8072 48.0795 34.3864 48.503C33.9656 48.9266 33.6324 49.429 33.406 49.9815C33.1796 50.5339 33.0644 51.1256 33.067 51.7227V61.0285H42.1426V51.7227C42.1452 51.1244 42.0295 50.5315 41.8022 49.9781C41.5749 49.4246 41.2404 48.9216 40.818 48.4978C40.3956 48.0741 39.8937 47.738 39.341 47.5089C38.7883 47.2798 38.1958 47.1622 37.5975 47.1628ZM45.0715 38.0774C45.8164 38.0774 46.5446 37.8565 47.164 37.4427C47.7834 37.0288 48.2661 36.4406 48.5512 35.7524C48.8363 35.0641 48.9109 34.3068 48.7655 33.5762C48.6202 32.8456 48.2615 32.1745 47.7348 31.6478C47.208 31.121 46.5369 30.7623 45.8063 30.617C45.0757 30.4716 44.3184 30.5462 43.6302 30.8313C42.9419 31.1164 42.3537 31.5991 41.9398 32.2185C41.526 32.8379 41.3051 33.5661 41.3051 34.311C41.3064 35.3095 41.7036 36.2668 42.4097 36.9728C43.1157 37.6789 44.073 38.0761 45.0715 38.0774ZM30.1185 40.6684L31.9944 38.7925L30.4565 37.2546L28.5806 39.1304L30.1185 40.6684ZM49.2934 25.9113L43.3426 19.9605L30.672 32.6213C30.5802 32.7123 30.5073 32.8207 30.4576 32.94C30.4078 33.0594 30.3822 33.1874 30.3822 33.3168C30.3822 33.4461 30.4078 33.5741 30.4576 33.6935C30.5073 33.8128 30.5802 33.9212 30.672 34.0122L35.2318 38.5721C35.4194 38.7506 35.6684 38.8501 35.9273 38.8501C36.1862 38.8501 36.4352 38.7506 36.6228 38.5721L39.1158 36.084C38.7948 35.0113 38.7701 33.8717 39.0443 32.786C39.3184 31.7004 39.8812 30.7091 40.673 29.9174C41.4647 29.1256 42.456 28.5628 43.5416 28.2887C44.6273 28.0145 45.7669 28.0392 46.8396 28.3602L49.2934 25.9113ZM51.2525 33.9976C51.2525 34.1053 51.2525 34.2082 51.2525 34.3159C51.2449 35.4853 50.9052 36.6284 50.273 37.6121C51.6703 38.4693 52.7499 39.7589 53.348 41.2852C53.946 42.8116 54.0297 44.4914 53.5866 46.0696C53.1434 47.6479 52.1974 49.0385 50.8923 50.0305C49.5871 51.0224 47.994 51.5615 46.3547 51.566H44.5425C44.5425 51.61 44.5425 51.659 44.5425 51.7031V55.1903H46.4135C48.9397 55.1954 51.3929 54.343 53.3717 52.7726C55.3505 51.2022 56.7378 49.0068 57.3066 46.5455C57.8754 44.0841 57.5921 41.5026 56.503 39.2232C55.414 36.9438 53.5836 35.1014 51.3113 33.9976H51.2525Z" fill="#28728A"/>
<path d="M37.7541 52.9379H37.6072C37.2881 52.9188 36.989 52.7762 36.7733 52.5402C36.5576 52.3043 36.4423 51.9936 36.4519 51.674C36.4614 51.3545 36.5951 51.0513 36.8245 50.8286C37.0539 50.606 37.361 50.4814 37.6807 50.4814C38.0004 50.4814 38.3075 50.606 38.5369 50.8286C38.7663 51.0513 38.8999 51.3545 38.9095 51.674C38.919 51.9936 38.8038 52.3043 38.5881 52.5402C38.3724 52.7762 38.0733 52.9188 37.7541 52.9379Z" fill="#D72578"/>
<line y1="-1" x2="5.65685" y2="-1" transform="matrix(-0.707107 -0.707107 -0.707107 0.707107 52 21.4775)" stroke="#D72578" stroke-width="2"/>
</svg>
