<svg width="80" height="80" viewBox="0 0 80 80" fill="none" xmlns="http://www.w3.org/2000/svg">
<path d="M40 80C62.0914 80 80 62.0914 80 40C80 17.9086 62.0914 0 40 0C17.9086 0 0 17.9086 0 40C0 62.0914 17.9086 80 40 80Z" fill="#D2F9FF"/>
<path d="M22.1351 14.2012L21.0171 15.3192L22.1351 16.4372L23.2531 15.3192C23.5619 15.0105 23.5619 14.51 23.2531 14.2012C22.9444 13.8926 22.4439 13.8926 22.1351 14.2012Z" fill="#D72578"/>
<path d="M25.6385 15.1696L24.5205 16.2876L25.6385 17.4056L26.7565 16.2876C27.0653 15.9788 27.0653 15.4782 26.7565 15.1696C26.4479 14.8608 25.9473 14.8608 25.6385 15.1696Z" fill="#D72578"/>
<path d="M36.3933 27.3409C36.0845 27.0322 35.5839 27.0322 35.2752 27.3409L34.1572 28.459L35.2752 29.577L36.3933 28.459C36.7019 28.1502 36.7019 27.6497 36.3933 27.3409Z" fill="#D72578"/>
<path d="M35.4245 24.9555C35.7333 24.6468 35.7333 24.1463 35.4245 23.8375C35.1158 23.5288 34.6152 23.5288 34.3065 23.8375L33.1885 24.9555L34.3065 26.0736L35.4245 24.9555Z" fill="#D72578"/>
<path d="M16.9852 15.6543L28.1998 18.7417L28.6197 17.2176L16.9613 14.0083C16.6865 13.9311 16.3939 14.009 16.1924 14.2113L14.2091 16.1946C14.03 16.3737 13.9474 16.6269 13.9875 16.8771C14.0268 17.1264 14.1828 17.3427 14.4083 17.4577L24.6346 22.6852L25.3542 21.277L16.0951 16.5443L16.9852 15.6543Z" fill="#8A5228"/>
<path d="M36.5895 33.6307L33.3801 21.9722L31.8561 22.3921L34.9435 33.6067L34.0533 34.4968L29.3208 25.2378L27.9126 25.9574L33.14 36.1837C33.255 36.4091 33.4712 36.5651 33.7206 36.6045C33.7624 36.6115 33.8032 36.6145 33.8442 36.6145C34.0519 36.6145 34.2541 36.5327 34.4031 36.3829L36.3865 34.3996C36.588 34.199 36.6651 33.9048 36.5895 33.6307Z" fill="#8A5228"/>
<path d="M21.6283 37.9457C21.5913 37.9457 21.5542 37.9435 21.5171 37.938C21.2709 37.9032 21.0555 37.7542 20.9358 37.5365L18.1379 32.4589L13.058 29.6587C12.8403 29.5383 12.6913 29.3229 12.6565 29.0774C12.6217 28.8311 12.7043 28.5833 12.8804 28.4072L14.2677 27.0199C14.4692 26.8184 14.7617 26.7389 15.0366 26.8169L19.1136 27.938L29.9036 15.2928C31.2307 13.7349 33.1685 12.7713 35.2198 12.6524C35.9641 12.6116 36.6743 12.8872 37.1924 13.4044C37.7113 13.9232 37.9845 14.6412 37.9421 15.373C37.8364 17.2305 37.055 18.9769 35.741 20.2893C35.6027 20.4283 35.4561 20.5626 35.3047 20.6915L22.6565 31.4862L23.7776 35.5579C23.8532 35.832 23.7761 36.1261 23.5746 36.3268L22.1873 37.7141C22.0383 37.8631 21.8368 37.9457 21.6283 37.9457ZM14.7418 28.7816L19.1014 31.1843C19.2327 31.2569 19.3399 31.3641 19.4125 31.4954L21.8127 35.852L22.1316 35.5339L20.9991 31.4213C20.9172 31.1256 21.0145 30.8091 21.2476 30.6099L34.2773 19.4903C34.3954 19.3891 34.5111 19.2841 34.6216 19.1729C35.6623 18.133 36.2799 16.7519 36.364 15.2827C36.3802 14.9955 36.2775 14.7253 36.0745 14.5223C35.8715 14.3193 35.5967 14.2042 35.3086 14.2312C33.689 14.3255 32.1565 15.0859 31.1073 16.3188L19.9899 29.3468C19.7915 29.5791 19.4758 29.6772 19.1785 29.5953L15.0605 28.4628L14.7418 28.7816Z" fill="#28728A"/>
<path d="M44.5671 42.4258H46.7411V44.5998H44.5671V42.4258Z" fill="#D72578"/>
<path d="M48.915 42.4258H51.089V44.5998H48.915V42.4258Z" fill="#D72578"/>
<path d="M53.2632 42.4258H55.4372V44.5998H53.2632V42.4258Z" fill="#D72578"/>
<path d="M57.6111 42.4258H59.7851V44.5998H57.6111V42.4258Z" fill="#D72578"/>
<path d="M60.8699 68.514C58.4391 68.514 57.162 67.8761 56.0346 67.3124C54.9911 66.7901 54.0899 66.34 52.1717 66.34C50.2546 66.34 49.3544 66.7901 48.3111 67.3124C47.1848 67.8761 45.9089 68.514 43.4791 68.514C41.0493 68.514 39.7723 67.8761 38.646 67.3124C37.6025 66.7901 36.7013 66.34 34.7842 66.34V64.166C37.215 64.166 38.4921 64.805 39.6183 65.3676C40.6618 65.8899 41.562 66.34 43.4789 66.34C45.395 66.34 46.2952 65.8899 47.3385 65.3676C48.4648 64.805 49.7417 64.166 52.1715 64.166C54.6024 64.166 55.8795 64.8039 57.0068 65.3676C58.0504 65.8899 58.9516 66.34 60.8697 66.34C62.7879 66.34 63.6891 65.8899 64.7327 65.3676C65.86 64.8039 67.1371 64.166 69.568 64.166V66.34C67.6498 66.34 66.7486 66.7901 65.705 67.3124C64.5777 67.8761 63.3008 68.514 60.8699 68.514Z" fill="#1890FF"/>
<path d="M30.8293 62.1894C28.5457 62.1894 27.346 61.5902 26.287 61.0607C25.3067 60.57 24.4601 60.1472 22.6582 60.1472C20.8573 60.1472 20.0116 60.57 19.0315 61.0607C17.9735 61.5902 16.775 62.1894 14.4924 62.1894C12.2098 62.1894 11.0103 61.5902 9.95228 61.0607C8.97201 60.57 8.12538 60.1472 6.32446 60.1472V58.105C8.608 58.105 9.80769 58.7052 10.8656 59.2338C11.8458 59.7244 12.6915 60.1472 14.4922 60.1472C16.2922 60.1472 17.1378 59.7244 18.1179 59.2338C19.176 58.7052 20.3755 58.105 22.6581 58.105C24.9416 58.105 26.1413 58.7043 27.2003 59.2338C28.1806 59.7244 29.0272 60.1472 30.8291 60.1472C32.631 60.1472 33.4776 59.7244 34.4579 59.2338C35.5169 58.7043 36.7166 58.105 39.0001 58.105V60.1472C37.1982 60.1472 36.3516 60.57 35.3713 61.0607C34.3123 61.5902 33.1128 62.1894 30.8293 62.1894Z" fill="#1890FF"/>
<path d="M42.4237 74.7065C40.1402 74.7065 38.9405 74.1073 37.8815 73.5777C36.9012 73.0871 36.0546 72.6643 34.2527 72.6643C32.4518 72.6643 31.6061 73.0871 30.626 73.5777C29.568 74.1073 28.3694 74.7065 26.0869 74.7065C23.8043 74.7065 22.6048 74.1073 21.5468 73.5777C20.5665 73.0871 19.7199 72.6643 17.9189 72.6643V70.6221C20.2025 70.6221 21.4022 71.2223 22.46 71.7509C23.4403 72.2415 24.286 72.6643 26.0867 72.6643C27.8867 72.6643 28.7323 72.2415 29.7124 71.7509C30.7705 71.2223 31.97 70.6221 34.2525 70.6221C36.5361 70.6221 37.7358 71.2213 38.7948 71.7509C39.7751 72.2415 40.6217 72.6643 42.4236 72.6643C44.2255 72.6643 45.0721 72.2415 46.0524 71.7509C47.1114 71.2213 48.3111 70.6221 50.5946 70.6221V72.6643C48.7927 72.6643 47.9461 73.0871 46.9658 73.5777C45.9068 74.1073 44.7073 74.7065 42.4237 74.7065Z" fill="#1890FF"/>
<path d="M68.9927 52.3362L64.1331 49.7444V39.1649C64.1331 38.5641 63.6465 38.078 63.0461 38.078H58.6981V34.817C58.6981 34.2161 58.2115 33.73 57.6111 33.73H46.7412C46.1408 33.73 45.6542 34.2161 45.6542 34.817V38.078H41.3062C40.7059 38.078 40.2192 38.5641 40.2192 39.1649V49.7444L35.3596 52.3362C34.8756 52.5951 34.6596 53.1738 34.8564 53.6865L40.2914 67.8174L42.321 67.0361L37.2311 53.8021L51.0892 46.412V57.6438H53.2631V46.412L67.1212 53.8021L62.0313 67.0361L64.0609 67.8174L69.4959 53.6865C69.6927 53.1738 69.4767 52.5953 68.9927 52.3362ZM47.8282 35.904H56.5241V38.078H47.8282V35.904ZM42.3932 40.2519H61.9591V48.5849L52.6878 43.6402C52.3683 43.4703 51.984 43.4703 51.6645 43.6402L42.3932 48.5849V40.2519Z" fill="#28728A"/>
</svg>
