<svg width="80" height="80" viewBox="0 0 80 80" fill="none" xmlns="http://www.w3.org/2000/svg">
<path d="M40 80C62.0914 80 80 62.0914 80 40C80 17.9086 62.0914 0 40 0C17.9086 0 0 17.9086 0 40C0 62.0914 17.9086 80 40 80Z" fill="#D2F9FF"/>
<path d="M40.75 64C41.9926 64 43 62.9926 43 61.75C43 60.5074 41.9926 59.5 40.75 59.5C39.5074 59.5 38.5 60.5074 38.5 61.75C38.5 62.9926 39.5074 64 40.75 64Z" fill="#D72578"/>
<path d="M58.7466 64C59.9892 64 60.9966 62.9926 60.9966 61.75C60.9966 60.5074 59.9892 59.5 58.7466 59.5C57.5039 59.5 56.4966 60.5074 56.4966 61.75C56.4966 62.9926 57.5039 64 58.7466 64Z" fill="#D72578"/>
<path d="M48.2466 64C49.4892 64 50.4966 62.9926 50.4966 61.75C50.4966 60.5074 49.4892 59.5 48.2466 59.5C47.0039 59.5 45.9966 60.5074 45.9966 61.75C45.9966 62.9926 47.0039 64 48.2466 64Z" fill="#D72578"/>
<path d="M21.25 64C22.4926 64 23.5 62.9926 23.5 61.75C23.5 60.5074 22.4926 59.5 21.25 59.5C20.0074 59.5 19 60.5074 19 61.75C19 62.9926 20.0074 64 21.25 64Z" fill="#D72578"/>
<path d="M59.5 37H58V32.5C58 31.6708 57.3285 31 56.5 31H50.5C49.6715 31 49 31.6708 49 32.5V37H47.5C46.9734 37 46.4699 37.0893 46 37.245V29.5C46 27.0186 44.1162 25 41.8002 25H37V17.5C37 16.6708 36.3285 16 35.5 16H26.5C25.6715 16 25 16.6708 25 17.5V25H20.1998C17.8838 25 16 27.0186 16 29.5V56.5C16 58.9814 17.8838 61 20.1998 61H41.8002C42.8334 61 43.7788 60.5966 44.511 59.9313C45.3069 60.5937 46.3521 61 47.4998 61H59.4998C61.9811 61 63.9998 59.1162 63.9998 56.8002V41.1998C64 38.8838 61.9814 37 59.5 37ZM52 34H55V37H52V34ZM28 19H34V25H28V19ZM41.8002 58H20.1998C19.5494 58 19 57.3129 19 56.5V29.5C19 28.6871 19.5494 28 20.1998 28H41.8002C42.4506 28 43 28.6871 43 29.5V56.5C43 57.3129 42.4506 58 41.8002 58ZM61 56.8002C61 57.4506 60.3129 58 59.5 58H47.5C46.6871 58 46 57.4506 46 56.8002V56.5V41.1998C46 40.5494 46.6871 40 47.5 40H59.5C60.3129 40 61 40.5494 61 41.1998V56.8002Z" fill="#28728A"/>
<path d="M23.5 32.5H26.5V53.5H23.5V32.5Z" fill="#8A5228"/>
<path d="M29.5 32.5H32.5V53.5H29.5V32.5Z" fill="#8A5228"/>
<path d="M35.5 32.5H38.5V53.5H35.5V32.5Z" fill="#8A5228"/>
<path d="M53.927 53.2505L56.048 51.1295L59.0439 54.1254L56.9229 56.2464L53.927 53.2505Z" fill="#8A5228"/>
<path d="M52.0269 43.375L49.0269 47.875H55.0269L52.0269 43.375Z" fill="#8A5228"/>
</svg>
